<svg id="svg" version="1.1" xmlns="http://www.w3.org/2000/svg" xmlns:xlink="http://www.w3.org/1999/xlink" width="400" height="183.41463414634146" viewBox="0, 0, 400,183.41463414634146"><g id="svgg"><path id="path0" d="M27.840 1.579 C 27.579 1.839,27.714 1.944,28.369 1.988 C 28.992 2.030,29.013 2.014,28.719 1.720 C 28.476 1.477,28.375 1.460,28.262 1.642 C 28.156 1.814,28.099 1.819,28.046 1.661 C 28.006 1.542,27.914 1.505,27.840 1.579 M18.397 5.296 C 18.413 5.506,18.534 5.720,18.667 5.771 C 18.859 5.845,18.865 5.781,18.695 5.455 C 18.396 4.880,18.365 4.863,18.397 5.296 M25.275 16.402 C 25.099 16.536,24.954 16.753,24.954 16.883 C 24.954 17.015,25.117 16.933,25.321 16.697 C 25.842 16.097,25.824 15.985,25.275 16.402 M55.297 20.457 C 55.315 20.754,55.416 20.831,55.715 20.774 C 56.214 20.678,56.160 20.130,55.648 20.092 C 55.371 20.072,55.279 20.168,55.297 20.457 M21.287 22.523 C 21.286 22.649,21.099 22.755,20.872 22.758 C 20.503 22.763,20.493 22.783,20.780 22.950 C 20.956 23.053,21.101 23.262,21.101 23.414 C 21.101 23.567,21.174 23.647,21.262 23.592 C 21.514 23.436,21.623 22.819,21.448 22.543 C 21.332 22.360,21.289 22.355,21.287 22.523 M8.018 23.384 C 7.871 23.532,7.686 23.594,7.607 23.523 C 7.528 23.452,7.514 23.483,7.575 23.591 C 7.637 23.698,7.702 24.581,7.720 25.552 C 7.753 27.307,8.041 27.983,8.466 27.300 C 8.546 27.170,8.532 27.037,8.434 27.003 C 8.189 26.918,8.208 23.792,8.456 23.544 C 8.588 23.412,8.593 23.305,8.471 23.230 C 8.370 23.167,8.166 23.237,8.018 23.384 M43.195 23.257 C 43.266 23.384,43.228 23.486,43.109 23.486 C 42.975 23.486,42.924 23.691,42.973 24.027 C 43.017 24.324,42.991 24.530,42.915 24.483 C 42.840 24.436,42.731 24.473,42.674 24.565 C 42.470 24.896,43.098 24.924,43.471 24.600 C 43.955 24.181,43.952 23.940,43.459 23.433 C 43.243 23.210,43.124 23.131,43.195 23.257 M42.832 25.891 C 42.762 26.004,42.819 26.168,42.958 26.256 C 43.097 26.344,43.128 26.419,43.028 26.422 C 42.834 26.428,43.308 26.781,43.516 26.786 C 43.730 26.791,43.574 26.300,43.262 25.988 C 43.052 25.778,42.920 25.748,42.832 25.891 M20.912 27.512 C 21.014 27.704,21.037 27.895,20.962 27.937 C 20.887 27.979,20.936 27.985,21.070 27.952 C 21.204 27.918,21.429 27.890,21.569 27.890 C 21.726 27.890,21.781 27.778,21.712 27.599 C 21.622 27.365,21.570 27.356,21.445 27.553 C 21.349 27.706,21.289 27.719,21.287 27.588 C 21.286 27.473,21.159 27.330,21.005 27.271 C 20.780 27.185,20.762 27.232,20.912 27.512 M55.151 30.049 C 55.259 30.123,55.413 30.349,55.493 30.550 C 55.587 30.786,55.670 30.835,55.725 30.687 C 55.772 30.560,55.895 30.508,55.997 30.571 C 56.106 30.639,56.097 30.525,55.975 30.297 C 55.858 30.079,55.589 29.909,55.361 29.911 C 55.131 29.913,55.040 29.972,55.151 30.049 M8.723 30.470 C 8.768 30.544,8.682 30.651,8.531 30.709 C 8.085 30.880,8.219 31.172,8.719 31.118 C 8.973 31.091,9.179 31.014,9.178 30.947 C 9.176 30.880,9.174 30.716,9.174 30.581 C 9.174 30.446,9.054 30.336,8.907 30.336 C 8.760 30.336,8.677 30.397,8.723 30.470 M22.248 30.751 C 22.248 31.077,22.325 31.185,22.510 31.114 C 22.655 31.058,22.721 31.094,22.659 31.195 C 22.598 31.295,22.635 31.376,22.741 31.376 C 23.073 31.376,22.955 30.665,22.592 30.471 C 22.298 30.314,22.248 30.354,22.248 30.751 M23.583 32.469 C 23.516 32.578,23.363 32.610,23.244 32.540 C 23.125 32.471,23.172 32.579,23.349 32.782 C 23.526 32.984,23.615 33.204,23.548 33.272 C 23.480 33.339,23.511 33.394,23.617 33.394 C 24.012 33.394,24.199 32.947,23.947 32.603 C 23.792 32.390,23.661 32.342,23.583 32.469 M10.297 34.379 C 10.281 34.637,10.167 34.701,9.842 34.639 C 9.408 34.556,9.335 35.080,9.745 35.333 C 9.832 35.388,9.850 35.283,9.783 35.101 C 9.668 34.784,9.678 34.784,10.042 35.104 C 10.495 35.500,10.623 35.337,10.448 34.587 C 10.376 34.283,10.309 34.190,10.297 34.379 M37.779 34.462 C 37.490 34.585,37.455 35.145,37.722 35.384 C 37.796 35.450,37.802 35.339,37.735 35.138 C 37.628 34.814,37.641 34.805,37.846 35.067 C 38.042 35.317,38.115 35.324,38.312 35.113 C 38.441 34.975,38.463 34.862,38.362 34.862 C 38.260 34.862,38.224 34.739,38.282 34.587 C 38.395 34.294,38.256 34.260,37.779 34.462 M87.520 34.630 C 87.518 34.906,87.491 34.914,87.339 34.679 C 87.183 34.436,87.161 34.437,87.159 34.688 C 87.153 35.308,87.897 35.627,88.316 35.183 C 88.718 34.757,88.600 34.388,88.047 34.346 C 87.654 34.316,87.522 34.387,87.520 34.630 M90.826 34.506 C 90.826 34.613,90.896 34.657,90.983 34.604 C 91.069 34.550,91.104 34.731,91.060 35.006 C 90.998 35.396,91.023 35.445,91.175 35.229 C 91.308 35.043,91.371 35.028,91.373 35.183 C 91.375 35.310,91.506 35.413,91.664 35.413 C 92.017 35.413,92.478 34.976,92.474 34.646 C 92.472 34.467,92.425 34.476,92.294 34.679 C 92.142 34.914,92.115 34.907,92.113 34.633 C 92.111 34.389,91.956 34.312,91.468 34.312 C 91.115 34.312,90.826 34.399,90.826 34.506 M95.485 35.336 C 95.546 35.496,95.598 35.764,95.599 35.932 C 95.601 36.178,95.634 36.188,95.762 35.986 C 95.850 35.847,96.005 35.784,96.107 35.847 C 96.209 35.910,96.342 35.831,96.403 35.672 C 96.561 35.259,96.555 35.253,96.118 35.367 C 95.847 35.438,95.764 35.404,95.854 35.258 C 95.933 35.130,95.864 35.046,95.679 35.046 C 95.476 35.046,95.411 35.143,95.485 35.336 M11.009 37.276 C 11.009 37.510,11.413 37.669,11.534 37.482 C 11.599 37.383,11.775 37.254,11.927 37.195 C 12.078 37.135,11.933 37.099,11.606 37.114 C 11.278 37.130,11.009 37.202,11.009 37.276 M104.825 39.652 C 104.678 39.799,104.703 39.948,104.918 40.198 C 105.253 40.590,105.515 40.356,105.369 39.796 C 105.266 39.401,105.116 39.361,104.825 39.652 M109.915 45.509 C 110.042 45.587,110.098 45.774,110.040 45.924 C 109.927 46.220,110.558 46.156,110.746 45.852 C 110.800 45.764,110.696 45.748,110.514 45.816 C 110.233 45.922,110.218 45.897,110.416 45.654 C 110.616 45.407,110.581 45.367,110.167 45.367 C 109.864 45.367,109.771 45.420,109.915 45.509 M44.063 45.627 C 44.254 45.678,44.331 45.834,44.274 46.052 C 44.202 46.329,44.261 46.377,44.573 46.295 C 44.854 46.222,44.910 46.132,44.776 45.970 C 44.674 45.847,44.645 45.692,44.711 45.625 C 44.777 45.559,44.591 45.514,44.297 45.526 C 44.002 45.538,43.897 45.583,44.063 45.627 M92.789 47.582 C 92.856 47.691,92.743 47.723,92.506 47.661 C 92.068 47.546,91.969 47.859,92.330 48.220 C 92.648 48.538,92.869 48.491,92.806 48.119 C 92.777 47.943,92.842 47.814,92.951 47.834 C 93.060 47.853,93.150 47.764,93.150 47.635 C 93.150 47.506,93.043 47.401,92.913 47.401 C 92.783 47.401,92.727 47.482,92.789 47.582 M111.872 49.528 C 111.612 49.620,111.656 49.681,112.106 49.850 C 112.704 50.076,112.796 50.018,112.427 49.649 C 112.299 49.520,112.049 49.466,111.872 49.528 M113.761 53.956 C 113.761 54.063,113.679 54.099,113.579 54.037 C 113.475 53.973,113.412 54.112,113.433 54.363 C 113.484 54.977,113.863 54.912,113.911 54.281 C 113.933 53.995,113.908 53.761,113.856 53.761 C 113.804 53.761,113.761 53.849,113.761 53.956 M284.212 55.418 C 284.126 55.471,284.114 55.595,284.184 55.693 C 284.356 55.933,287.012 55.806,286.930 55.562 C 286.867 55.370,284.492 55.244,284.212 55.418 M65.918 55.988 C 65.997 56.205,65.942 56.266,65.720 56.208 C 65.298 56.097,65.357 61.189,65.780 61.351 C 65.960 61.420,66.002 61.356,65.920 61.137 C 65.821 60.874,65.847 60.862,66.091 61.060 C 66.781 61.620,66.896 56.642,66.207 56.038 C 65.879 55.749,65.828 55.741,65.918 55.988 M286.717 56.254 C 286.565 56.650,286.600 64.060,286.756 64.404 C 286.825 64.555,286.990 64.702,287.124 64.729 C 287.257 64.757,287.314 64.695,287.251 64.592 C 287.187 64.488,287.201 64.404,287.283 64.404 C 287.364 64.404,287.408 62.553,287.379 60.290 C 287.330 56.469,287.350 56.170,287.654 56.091 C 287.837 56.043,287.727 55.996,287.405 55.985 C 287.034 55.971,286.789 56.067,286.717 56.254 M287.601 60.183 C 287.601 62.353,287.627 63.241,287.660 62.156 C 287.692 61.071,287.692 59.296,287.660 58.211 C 287.627 57.126,287.601 58.014,287.601 60.183 M149.442 56.709 C 149.220 57.068,149.472 57.085,154.922 57.070 C 159.931 57.056,160.358 57.079,160.533 57.381 C 160.637 57.560,160.725 57.610,160.728 57.492 C 160.731 57.374,160.789 57.134,160.857 56.957 C 160.941 56.739,160.911 56.679,160.765 56.770 C 160.647 56.843,160.550 56.815,160.550 56.708 C 160.550 56.408,150.059 56.442,149.735 56.743 C 149.537 56.927,149.513 56.927,149.617 56.743 C 149.774 56.465,149.613 56.433,149.442 56.709 M296.697 56.789 C 296.572 56.940,296.541 57.067,296.629 57.069 C 296.717 57.072,299.157 57.070,302.052 57.064 C 306.748 57.055,307.334 57.087,307.484 57.355 C 307.632 57.620,307.665 57.609,307.754 57.269 C 307.822 57.010,307.770 56.881,307.598 56.881 C 307.456 56.881,307.339 56.798,307.339 56.697 C 307.339 56.367,296.974 56.456,296.697 56.789 M100.712 57.200 C 100.700 57.277,100.695 57.387,100.701 57.445 C 100.707 57.503,100.731 58.061,100.753 58.686 C 100.813 60.331,101.215 60.541,101.266 58.954 C 101.288 58.280,101.337 57.678,101.375 57.616 C 101.413 57.555,101.284 57.405,101.089 57.283 C 100.894 57.161,100.724 57.124,100.712 57.200 M269.366 61.386 C 269.560 61.620,269.560 61.662,269.366 61.616 C 269.235 61.585,269.104 61.665,269.073 61.794 C 269.043 61.922,269.059 61.948,269.108 61.850 C 269.158 61.752,269.317 61.717,269.461 61.773 C 269.606 61.829,269.725 61.778,269.725 61.660 C 269.725 61.543,269.828 61.499,269.954 61.562 C 270.080 61.626,270.023 61.549,269.827 61.390 C 269.369 61.018,269.059 61.016,269.366 61.386 M24.954 61.943 C 24.954 62.085,24.872 62.202,24.771 62.202 C 24.670 62.202,24.588 62.346,24.590 62.523 C 24.592 62.797,24.619 62.804,24.771 62.569 C 24.929 62.324,24.950 62.324,24.960 62.569 C 24.966 62.720,25.092 62.596,25.240 62.294 C 25.389 61.991,25.469 61.892,25.418 62.074 C 25.362 62.274,25.401 62.358,25.516 62.286 C 25.786 62.119,25.635 61.784,25.265 61.730 C 25.094 61.704,24.954 61.800,24.954 61.943 M80.734 65.065 C 80.734 65.426,81.228 65.928,81.365 65.706 C 81.513 65.467,81.303 65.001,80.995 64.882 C 80.839 64.822,80.734 64.896,80.734 65.065 M281.770 65.664 L 281.247 65.780 281.816 65.993 C 282.329 66.185,282.385 66.172,282.385 65.856 C 282.385 65.663,282.365 65.514,282.339 65.526 C 282.314 65.538,282.058 65.600,281.770 65.664 M50.234 67.231 C 50.170 67.561,50.216 67.647,50.414 67.571 C 50.560 67.515,50.750 67.584,50.836 67.723 C 50.949 67.906,50.984 67.861,50.962 67.562 C 50.942 67.307,50.840 67.182,50.695 67.237 C 50.565 67.287,50.459 67.255,50.459 67.165 C 50.459 67.076,50.562 66.961,50.688 66.911 C 50.834 66.852,50.808 66.813,50.618 66.803 C 50.441 66.795,50.283 66.970,50.234 67.231 M266.616 67.602 C 266.358 67.913,266.502 68.257,266.890 68.257 C 267.049 68.257,267.132 68.113,267.098 67.895 C 267.020 67.378,266.875 67.290,266.616 67.602 M279.604 67.837 C 279.547 68.218,279.599 68.458,279.752 68.517 C 280.113 68.656,280.172 68.406,279.920 67.798 L 279.693 67.248 279.604 67.837 M267.235 67.870 C 267.310 67.991,267.283 68.196,267.175 68.326 C 267.032 68.498,267.042 68.563,267.214 68.563 C 267.506 68.563,267.573 67.942,267.299 67.773 C 267.177 67.698,267.152 67.735,267.235 67.870 M62.423 68.371 C 62.089 68.729,62.134 69.092,62.477 68.807 C 62.721 68.605,62.820 68.670,62.784 69.006 C 62.778 69.065,62.878 69.113,63.007 69.113 C 63.136 69.113,63.242 69.007,63.242 68.877 C 63.242 68.746,63.160 68.691,63.060 68.752 C 62.953 68.818,62.917 68.714,62.973 68.500 C 63.082 68.085,62.761 68.010,62.423 68.371 M84.533 68.502 C 84.481 68.636,84.555 68.746,84.696 68.746 C 84.838 68.746,84.954 68.636,84.954 68.502 C 84.954 68.367,84.880 68.257,84.790 68.257 C 84.700 68.257,84.584 68.367,84.533 68.502 M84.985 68.827 C 84.852 69.039,84.825 69.162,84.925 69.101 C 85.025 69.039,85.148 69.092,85.199 69.219 C 85.250 69.346,85.299 69.222,85.307 68.945 C 85.324 68.339,85.296 68.328,84.985 68.827 M89.070 69.745 C 88.984 69.884,89.012 69.917,89.146 69.834 C 89.262 69.762,89.358 69.795,89.358 69.907 C 89.358 70.036,89.724 70.096,90.363 70.070 C 91.097 70.040,91.322 69.972,91.194 69.818 C 90.952 69.526,89.242 69.467,89.070 69.745 M9.264 70.829 C 9.201 70.931,9.081 70.973,8.999 70.922 C 8.793 70.795,8.858 71.438,9.066 71.589 C 9.260 71.728,9.599 71.429,9.775 70.963 C 9.908 70.613,9.469 70.497,9.264 70.829 M227.133 73.547 C 226.778 73.962,226.940 74.560,227.339 74.308 C 227.491 74.212,227.543 74.133,227.455 74.131 C 227.367 74.130,227.382 74.022,227.490 73.893 C 227.597 73.763,227.624 73.559,227.550 73.438 C 227.451 73.279,227.338 73.308,227.133 73.547 M364.294 73.647 C 364.362 74.312,364.870 74.653,365.008 74.126 C 365.068 73.895,365.012 73.761,364.854 73.761 C 364.717 73.761,364.523 73.617,364.423 73.440 C 364.274 73.179,364.250 73.217,364.294 73.647 M6.539 74.588 C 6.592 74.726,6.753 74.794,6.896 74.739 C 7.268 74.596,7.217 74.395,6.799 74.363 C 6.567 74.346,6.476 74.424,6.539 74.588 M72.074 74.679 C 71.960 74.999,72.226 75.596,72.481 75.596 C 72.578 75.596,72.640 75.396,72.620 75.151 C 72.599 74.906,72.525 74.741,72.454 74.785 C 72.383 74.829,72.290 74.761,72.248 74.634 C 72.193 74.468,72.144 74.481,72.074 74.679 M212.641 74.977 C 212.520 75.124,212.524 75.237,212.655 75.317 C 212.762 75.384,212.792 75.536,212.720 75.655 C 212.636 75.795,212.693 75.788,212.883 75.635 C 213.122 75.441,213.190 75.441,213.256 75.635 C 213.300 75.765,213.374 75.621,213.420 75.315 C 213.509 74.719,213.029 74.511,212.641 74.977 M31.195 75.528 C 31.191 76.089,31.606 76.353,32.414 76.306 C 33.008 76.271,33.119 76.200,33.119 75.856 C 33.119 75.631,33.057 75.486,32.982 75.533 C 32.906 75.580,32.844 75.531,32.844 75.424 C 32.844 75.317,32.555 75.229,32.202 75.229 C 31.812 75.229,31.559 75.319,31.557 75.459 C 31.555 75.612,31.495 75.596,31.376 75.413 C 31.231 75.188,31.198 75.209,31.195 75.528 M240.563 75.367 C 240.556 75.493,240.447 75.596,240.321 75.596 C 240.146 75.596,240.105 76.165,240.148 77.981 C 240.200 80.203,240.228 80.367,240.561 80.367 C 240.950 80.367,241.093 76.341,240.734 75.505 C 240.647 75.303,240.570 75.241,240.563 75.367 M286.732 75.601 C 286.392 76.873,286.633 84.578,286.995 84.006 C 287.111 83.823,287.151 83.819,287.153 83.991 C 287.155 84.117,287.243 84.220,287.350 84.220 C 287.457 84.220,287.497 84.143,287.439 84.049 C 287.381 83.955,287.417 83.827,287.520 83.763 C 287.934 83.507,287.728 75.229,287.307 75.229 C 287.212 75.229,287.185 75.312,287.248 75.413 C 287.310 75.514,287.281 75.596,287.182 75.596 C 287.084 75.596,286.969 75.495,286.928 75.372 C 286.887 75.248,286.799 75.351,286.732 75.601 M287.477 81.687 C 287.444 82.828,287.418 81.945,287.418 79.725 C 287.418 77.505,287.444 76.571,287.476 77.650 C 287.509 78.730,287.509 80.546,287.477 81.687 M32.617 76.089 C 32.441 76.135,32.111 76.137,31.883 76.093 C 31.655 76.049,31.798 76.012,32.202 76.010 C 32.606 76.008,32.792 76.043,32.617 76.089 M324.527 76.223 C 324.472 76.366,324.545 76.529,324.690 76.585 C 324.835 76.640,324.954 76.601,324.954 76.497 C 324.954 76.393,325.057 76.371,325.183 76.446 C 325.339 76.540,325.332 76.485,325.161 76.274 C 324.854 75.895,324.659 75.880,324.527 76.223 M67.849 76.871 C 67.651 77.103,67.618 77.270,67.747 77.398 C 68.014 77.665,68.440 77.454,68.440 77.055 C 68.440 76.564,68.181 76.483,67.849 76.871 M234.760 76.898 C 234.655 77.068,235.396 77.326,235.549 77.173 C 235.609 77.113,235.556 77.064,235.433 77.064 C 235.309 77.064,235.250 76.995,235.302 76.911 C 235.354 76.827,235.273 76.758,235.121 76.758 C 234.970 76.758,234.807 76.821,234.760 76.898 M4.836 77.205 C 4.903 77.313,4.833 77.526,4.681 77.679 C 4.287 78.072,4.333 78.165,4.924 78.165 C 5.261 78.165,5.443 78.070,5.443 77.893 C 5.443 77.691,5.382 77.671,5.206 77.817 C 5.023 77.970,4.986 77.928,5.042 77.635 C 5.082 77.426,5.025 77.200,4.914 77.131 C 4.800 77.060,4.766 77.092,4.836 77.205 M323.676 77.405 C 323.673 77.546,323.554 77.610,323.404 77.552 C 323.217 77.480,323.172 77.538,323.252 77.746 C 323.333 77.959,323.297 78.000,323.122 77.892 C 322.959 77.791,322.923 77.812,323.012 77.956 C 323.085 78.074,323.214 78.128,323.300 78.075 C 323.385 78.023,323.483 78.051,323.516 78.139 C 323.550 78.227,323.716 78.249,323.885 78.186 C 324.157 78.087,324.163 78.020,323.938 77.615 C 323.797 77.362,323.680 77.268,323.676 77.405 M4.105 78.731 C 3.764 79.160,4.056 79.585,4.587 79.433 C 4.854 79.357,4.917 79.295,4.738 79.284 C 4.568 79.274,4.403 79.087,4.371 78.869 C 4.322 78.540,4.276 78.516,4.105 78.731 M77.918 79.491 C 77.762 80.086,78.481 80.428,78.674 79.851 C 78.713 79.731,78.611 79.633,78.445 79.633 C 78.279 79.633,78.191 79.556,78.249 79.462 C 78.307 79.368,78.280 79.245,78.189 79.189 C 78.098 79.133,77.976 79.269,77.918 79.491 M63.240 79.573 C 63.049 79.764,63.100 80.183,63.314 80.183 C 63.420 80.183,63.448 80.087,63.375 79.969 C 63.287 79.825,63.342 79.792,63.542 79.869 C 63.707 79.932,63.899 79.884,63.968 79.763 C 64.038 79.641,64.028 79.602,63.945 79.677 C 63.863 79.752,63.697 79.732,63.578 79.633 C 63.458 79.534,63.306 79.507,63.240 79.573 M173.681 80.636 C 173.940 80.832,173.964 80.907,173.771 80.912 C 173.550 80.916,173.546 80.957,173.748 81.147 C 173.942 81.330,174.008 81.330,174.075 81.147 C 174.121 81.021,174.297 80.916,174.465 80.915 C 174.722 80.912,174.728 80.885,174.504 80.743 C 174.358 80.651,174.178 80.612,174.104 80.657 C 174.030 80.703,173.918 80.656,173.855 80.553 C 173.792 80.451,173.646 80.367,173.532 80.367 C 173.418 80.367,173.485 80.488,173.681 80.636 M239.898 80.717 C 239.954 80.808,240.165 80.840,240.367 80.787 C 240.872 80.655,240.827 80.550,240.264 80.550 C 240.006 80.550,239.841 80.625,239.898 80.717 M240.023 81.899 C 239.868 82.085,239.859 82.207,239.994 82.290 C 240.102 82.356,240.131 82.508,240.060 82.627 C 239.988 82.747,240.085 82.720,240.275 82.569 C 240.465 82.417,240.562 82.391,240.491 82.510 C 240.419 82.629,240.445 82.779,240.547 82.842 C 240.650 82.906,240.734 82.877,240.734 82.778 C 240.734 82.680,240.789 82.455,240.857 82.278 C 240.938 82.068,240.910 82.001,240.776 82.084 C 240.665 82.153,240.500 82.079,240.410 81.919 C 240.268 81.664,240.220 81.661,240.023 81.899 M93.816 82.091 C 93.837 82.203,93.744 82.271,93.610 82.243 C 93.263 82.171,93.525 82.529,94.001 82.776 C 94.222 82.891,94.342 82.919,94.266 82.838 C 94.190 82.757,94.255 82.549,94.411 82.377 C 94.670 82.091,94.655 82.057,94.237 81.977 C 93.963 81.924,93.794 81.970,93.816 82.091 M332.747 83.288 C 332.864 83.482,332.828 83.519,332.608 83.435 C 332.400 83.355,332.343 83.401,332.414 83.587 C 332.470 83.734,332.420 83.853,332.302 83.853 C 332.185 83.853,332.146 83.946,332.216 84.060 C 332.304 84.201,332.398 84.171,332.514 83.965 C 332.607 83.798,332.755 83.706,332.843 83.761 C 333.153 83.952,333.202 83.524,332.899 83.278 C 332.636 83.065,332.613 83.066,332.747 83.288 M226.224 84.541 C 226.215 84.733,226.172 84.770,226.117 84.633 C 225.998 84.339,222.752 84.305,222.752 84.598 C 222.752 84.705,222.657 84.733,222.540 84.661 C 222.414 84.583,222.378 84.611,222.452 84.730 C 222.519 84.839,222.491 84.981,222.388 85.044 C 222.118 85.211,222.160 85.443,222.460 85.443 C 222.601 85.443,222.683 85.354,222.641 85.245 C 222.589 85.108,223.171 85.057,224.493 85.080 L 226.422 85.114 226.422 84.667 C 226.422 84.160,226.246 84.049,226.224 84.541 M373.215 84.495 C 373.197 84.700,373.141 84.761,373.089 84.633 C 372.971 84.339,369.725 84.305,369.725 84.598 C 369.725 84.705,369.654 84.749,369.568 84.695 C 369.481 84.642,369.451 84.810,369.501 85.068 C 369.554 85.350,369.643 85.454,369.720 85.328 C 369.806 85.190,370.458 85.130,371.629 85.151 C 373.632 85.189,373.567 85.210,373.383 84.587 C 373.269 84.201,373.242 84.186,373.215 84.495 M219.269 85.459 C 219.275 85.740,219.627 86.166,219.630 85.895 C 219.632 85.698,219.690 85.690,219.894 85.860 C 220.108 86.037,220.137 86.008,220.056 85.699 C 219.965 85.352,219.262 85.138,219.269 85.459 M229.037 85.450 C 228.911 85.497,228.807 85.599,228.807 85.678 C 228.807 85.844,229.693 85.704,229.807 85.521 C 229.896 85.376,229.369 85.328,229.037 85.450 M364.063 85.994 C 364.261 86.047,364.331 86.200,364.269 86.439 C 364.169 86.821,364.550 86.873,364.814 86.514 C 365.113 86.106,364.941 85.872,364.358 85.893 C 364.030 85.905,363.897 85.950,364.063 85.994 M199.522 86.270 C 199.433 86.414,199.489 86.446,199.695 86.367 C 199.863 86.303,200.000 86.330,200.000 86.428 C 200.000 86.526,200.186 86.596,200.413 86.584 C 200.724 86.568,200.746 86.542,200.505 86.479 C 200.328 86.433,200.183 86.319,200.183 86.225 C 200.183 85.981,199.679 86.015,199.522 86.270 M363.162 86.568 C 362.733 86.941,362.791 87.156,363.323 87.156 C 363.731 87.156,363.841 86.973,363.687 86.549 C 363.571 86.233,363.548 86.233,363.162 86.568 M380.197 87.148 C 380.063 87.231,380.010 87.390,380.079 87.502 C 380.148 87.615,380.125 87.706,380.026 87.706 C 379.928 87.706,379.814 87.607,379.774 87.486 C 379.731 87.358,379.644 87.413,379.565 87.618 C 379.491 87.812,379.489 87.912,379.561 87.840 C 379.632 87.768,379.791 87.793,379.914 87.895 C 380.074 88.027,380.221 87.951,380.433 87.627 C 380.744 87.153,380.614 86.890,380.197 87.148 M1.284 88.274 C 1.040 88.447,1.040 88.460,1.284 88.392 C 1.436 88.351,1.650 88.439,1.760 88.589 C 1.931 88.820,1.977 88.802,2.064 88.467 C 2.179 88.029,1.773 87.928,1.284 88.274 M198.117 88.367 C 197.915 88.568,198.200 88.991,198.538 88.991 C 198.722 88.991,198.910 89.135,198.956 89.312 C 199.002 89.489,199.050 89.355,199.061 89.014 C 199.079 88.492,199.041 88.430,198.815 88.617 C 198.526 88.857,198.092 88.707,198.265 88.428 C 198.383 88.237,198.286 88.197,198.117 88.367 M180.882 88.564 C 181.225 88.635,181.264 88.702,181.089 88.913 C 180.913 89.125,180.946 89.174,181.262 89.174 C 181.620 89.174,181.724 89.022,181.606 88.671 C 181.580 88.596,181.312 88.522,181.009 88.505 C 180.622 88.484,180.584 88.501,180.882 88.564 M360.105 88.581 C 360.213 88.655,360.355 88.860,360.420 89.037 C 360.486 89.213,360.633 89.358,360.748 89.358 C 360.866 89.358,360.907 89.227,360.841 89.057 C 360.740 88.794,360.765 88.788,361.035 89.011 C 361.317 89.243,361.325 89.229,361.125 88.853 C 360.978 88.579,360.737 88.441,360.406 88.443 C 360.132 88.445,359.997 88.507,360.105 88.581 M62.202 91.878 C 62.202 94.654,62.292 95.049,62.927 95.043 C 63.092 95.041,63.134 94.984,63.028 94.905 C 62.818 94.751,62.768 89.357,62.977 89.358 C 63.050 89.358,63.136 90.555,63.168 92.019 L 63.226 94.679 63.219 91.973 L 63.211 89.266 62.706 89.208 L 62.202 89.150 62.202 91.878 M312.267 89.783 C 311.976 90.004,312.181 90.642,312.543 90.642 C 312.715 90.642,312.599 90.206,312.385 90.049 C 312.284 89.975,312.450 89.911,312.752 89.908 C 313.176 89.904,313.239 89.862,313.028 89.725 C 312.680 89.500,312.634 89.503,312.267 89.783 M236.198 90.060 C 236.059 90.146,236.042 90.289,236.149 90.462 C 236.260 90.641,236.376 90.670,236.498 90.547 C 236.737 90.308,236.477 89.887,236.198 90.060 M15.529 90.708 C 15.232 92.207,15.432 93.996,15.877 93.826 C 16.186 93.707,16.281 90.642,15.977 90.642 C 15.883 90.642,15.776 90.498,15.738 90.321 C 15.699 90.143,15.607 90.315,15.529 90.708 M310.836 91.297 C 311.046 91.550,311.743 91.581,311.743 91.337 C 311.743 91.184,311.704 91.171,311.053 91.102 C 310.732 91.069,310.683 91.113,310.836 91.297 M209.954 93.154 C 210.259 93.234,210.362 93.451,210.283 93.848 C 210.264 93.946,210.419 93.871,210.629 93.682 C 211.080 93.273,211.106 93.185,210.734 93.328 C 210.583 93.386,210.459 93.342,210.459 93.231 C 210.459 93.119,210.273 93.037,210.046 93.049 C 209.735 93.065,209.712 93.091,209.954 93.154 M161.231 94.248 C 161.354 94.297,161.426 94.559,161.393 94.829 C 161.359 95.100,161.368 95.218,161.413 95.092 C 161.458 94.966,161.565 94.862,161.651 94.862 C 161.737 94.862,161.845 94.966,161.889 95.092 C 161.934 95.218,161.944 95.100,161.910 94.829 C 161.877 94.559,161.949 94.297,162.071 94.248 C 162.194 94.198,162.005 94.157,161.651 94.157 C 161.298 94.157,161.109 94.198,161.231 94.248 M196.690 94.963 C 196.502 95.190,196.424 95.199,196.303 95.009 C 196.220 94.878,196.153 94.853,196.154 94.954 C 196.154 95.055,196.320 95.344,196.522 95.596 C 196.725 95.849,196.867 95.931,196.839 95.780 C 196.812 95.628,196.880 95.521,196.991 95.541 C 197.112 95.563,197.159 95.396,197.107 95.129 C 197.006 94.599,196.996 94.594,196.690 94.963 M1.468 95.695 C 1.468 95.833,1.323 96.029,1.147 96.132 C 0.870 96.293,0.893 96.320,1.311 96.325 C 1.578 96.328,1.843 96.206,1.902 96.053 C 1.960 95.901,2.031 95.723,2.059 95.658 C 2.087 95.593,1.966 95.518,1.789 95.492 C 1.612 95.467,1.468 95.558,1.468 95.695 M47.523 95.607 C 47.523 95.714,47.440 95.750,47.339 95.688 C 47.239 95.626,47.156 95.662,47.156 95.769 C 47.156 95.876,47.243 95.963,47.350 95.963 C 47.457 95.963,47.494 96.045,47.432 96.146 C 47.367 96.250,47.510 96.312,47.767 96.291 C 48.163 96.258,48.192 96.206,48.023 95.833 C 47.825 95.400,47.523 95.263,47.523 95.607 M16.423 96.329 C 16.361 96.429,16.386 96.646,16.478 96.810 C 16.618 97.060,16.661 97.030,16.738 96.628 C 16.829 96.153,16.642 95.975,16.423 96.329 M172.777 97.392 C 172.711 97.497,172.762 97.620,172.889 97.666 C 173.016 97.711,173.059 97.812,172.986 97.891 C 172.913 97.970,172.745 97.944,172.613 97.834 C 172.429 97.682,172.372 97.716,172.372 97.978 C 172.372 98.167,172.446 98.276,172.537 98.220 C 172.627 98.164,172.766 98.222,172.844 98.349 C 172.947 98.515,173.022 98.471,173.110 98.193 C 173.248 97.759,172.967 97.084,172.777 97.392 M342.717 100.804 C 342.756 102.439,342.708 103.216,342.564 103.306 C 342.420 103.395,342.445 103.470,342.645 103.547 C 342.805 103.608,342.936 103.569,342.936 103.461 C 342.936 103.352,343.064 103.313,343.221 103.373 C 343.384 103.435,343.457 103.405,343.393 103.301 C 343.332 103.201,343.371 103.119,343.481 103.119 C 343.617 103.119,343.664 102.380,343.629 100.796 L 343.578 98.472 343.119 98.452 L 342.661 98.432 342.717 100.804 M240.569 98.781 C 240.557 99.002,240.456 99.085,240.281 99.018 C 240.133 98.962,239.963 98.994,239.903 99.091 C 239.844 99.187,239.882 99.266,239.989 99.266 C 240.278 99.266,240.245 101.780,239.954 101.897 C 239.828 101.948,239.911 101.996,240.138 102.004 C 240.395 102.013,240.557 102.139,240.569 102.339 C 240.615 103.153,240.881 101.630,240.881 100.550 C 240.881 99.449,240.614 97.937,240.569 98.781 M320.111 99.158 C 320.169 99.309,320.071 99.457,319.876 99.513 C 319.657 99.576,319.700 99.600,320.000 99.581 C 320.252 99.565,320.564 99.618,320.693 99.698 C 320.981 99.878,320.921 99.469,320.609 99.133 C 320.319 98.818,319.987 98.835,320.111 99.158 M355.196 99.421 C 355.249 99.693,355.327 99.771,355.412 99.634 C 355.486 99.515,355.618 99.446,355.706 99.480 C 355.794 99.514,355.893 99.405,355.925 99.239 C 355.967 99.022,355.861 98.944,355.549 98.964 C 355.197 98.986,355.130 99.073,355.196 99.421 M208.098 101.046 C 207.922 101.235,207.934 101.284,208.158 101.284 C 208.313 101.284,208.420 101.383,208.394 101.503 C 208.369 101.623,208.493 101.753,208.670 101.792 C 208.846 101.830,208.991 101.768,208.991 101.654 C 208.991 101.540,208.895 101.505,208.779 101.577 C 208.634 101.667,208.618 101.627,208.728 101.450 C 209.131 100.805,208.626 100.481,208.098 101.046 M93.998 101.511 C 93.649 101.963,93.515 102.262,93.719 102.136 C 93.828 102.069,93.959 102.159,94.011 102.337 C 94.073 102.552,94.102 102.506,94.096 102.202 C 94.083 101.487,94.142 101.345,94.293 101.731 C 94.377 101.946,94.480 102.008,94.553 101.889 C 94.743 101.582,94.219 101.226,93.998 101.511 M162.929 103.035 C 162.751 103.250,162.746 103.370,162.907 103.531 C 163.024 103.648,163.126 103.706,163.135 103.661 C 163.189 103.369,163.235 102.752,163.203 102.752 C 163.182 102.752,163.059 102.880,162.929 103.035 M355.054 103.037 C 355.149 103.151,355.193 103.278,355.151 103.320 C 355.110 103.361,355.271 103.406,355.509 103.420 C 355.883 103.443,355.913 103.401,355.733 103.113 C 355.619 102.930,355.381 102.791,355.203 102.805 C 354.985 102.821,354.937 102.896,355.054 103.037 M63.262 104.377 C 63.521 104.784,63.525 104.826,63.284 104.636 C 63.055 104.455,62.997 104.457,62.997 104.645 C 62.997 104.981,63.619 104.984,63.747 104.650 C 63.885 104.290,63.764 104.104,63.314 103.986 C 62.966 103.896,62.964 103.910,63.262 104.377 M386.277 104.171 C 386.095 104.236,386.089 104.316,386.253 104.513 C 386.529 104.846,386.789 104.843,386.789 104.506 C 386.789 104.185,386.594 104.057,386.277 104.171 M177.572 104.914 C 177.525 105.093,177.595 105.341,177.726 105.464 C 178.016 105.734,178.231 105.759,178.073 105.505 C 178.011 105.404,178.086 105.321,178.240 105.321 C 178.419 105.321,178.481 105.217,178.411 105.035 C 178.351 104.878,178.184 104.795,178.040 104.850 C 177.896 104.905,177.829 104.869,177.891 104.769 C 177.953 104.669,177.925 104.587,177.830 104.587 C 177.735 104.587,177.619 104.734,177.572 104.914 M4.257 104.991 C 3.875 105.373,4.003 105.644,4.518 105.545 C 4.923 105.468,4.951 105.426,4.698 105.284 C 4.532 105.191,4.444 105.038,4.502 104.943 C 4.651 104.702,4.520 104.728,4.257 104.991 M4.294 105.900 C 4.213 106.031,4.244 106.062,4.375 105.981 C 4.502 105.902,4.587 105.969,4.587 106.147 C 4.587 106.334,4.502 106.394,4.358 106.310 C 4.232 106.236,4.286 106.355,4.478 106.574 C 4.947 107.109,5.326 107.086,5.280 106.527 C 5.260 106.282,5.178 106.122,5.099 106.171 C 5.019 106.220,4.954 106.131,4.954 105.974 C 4.954 105.642,4.487 105.589,4.294 105.900 M196.264 106.330 C 196.198 106.501,196.265 106.606,196.439 106.606 C 196.609 106.606,196.669 106.695,196.590 106.835 C 196.520 106.961,196.618 106.917,196.809 106.736 C 197.110 106.452,197.119 106.386,196.881 106.235 C 196.500 105.994,196.386 106.012,196.264 106.330 M67.784 106.733 C 67.844 107.141,68.379 107.280,68.379 106.888 C 68.379 106.733,68.339 106.646,68.289 106.696 C 68.239 106.745,68.095 106.699,67.967 106.594 C 67.794 106.450,67.748 106.485,67.784 106.733 M312.383 106.608 C 312.320 106.711,312.209 106.758,312.137 106.714 C 312.064 106.669,312.005 106.787,312.005 106.975 C 312.005 107.163,312.153 107.356,312.335 107.403 C 312.601 107.473,312.656 107.388,312.623 106.956 C 312.578 106.369,312.554 106.333,312.383 106.608 M73.948 106.709 C 73.941 107.180,74.737 107.788,74.871 107.414 C 75.001 107.050,74.728 106.737,74.438 106.916 C 74.346 106.973,74.199 106.906,74.111 106.767 C 74.023 106.628,73.949 106.601,73.948 106.709 M343.670 107.540 C 343.670 107.944,344.133 108.015,344.280 107.633 C 344.338 107.480,344.235 107.338,344.024 107.283 C 343.765 107.215,343.670 107.285,343.670 107.540 M356.239 107.645 C 356.239 107.881,356.321 108.084,356.422 108.097 C 357.381 108.219,357.379 108.220,357.175 107.787 C 357.067 107.558,356.915 107.410,356.838 107.458 C 356.761 107.505,356.697 107.471,356.697 107.381 C 356.697 107.291,356.594 107.217,356.468 107.217 C 356.342 107.217,356.239 107.410,356.239 107.645 M179.459 107.836 C 179.220 108.106,179.238 108.122,179.643 107.999 C 179.890 107.924,180.191 107.856,180.313 107.846 C 180.435 107.837,180.492 107.760,180.440 107.676 C 180.286 107.426,179.745 107.515,179.459 107.836 M31.110 108.257 C 31.140 108.408,31.171 108.645,31.179 108.784 C 31.190 108.986,31.247 108.991,31.465 108.809 C 31.615 108.685,32.015 108.615,32.354 108.655 C 33.129 108.746,33.570 108.364,33.027 108.073 C 32.471 107.775,31.041 107.912,31.110 108.257 M72.221 108.731 C 72.034 109.218,72.084 109.867,72.284 109.550 C 72.377 109.403,72.416 109.223,72.370 109.150 C 72.325 109.076,72.384 108.956,72.502 108.883 C 72.637 108.800,72.668 108.830,72.586 108.962 C 72.514 109.079,72.543 109.174,72.650 109.174 C 72.875 109.174,72.884 109.125,72.733 108.731 C 72.671 108.571,72.556 108.440,72.477 108.440 C 72.398 108.440,72.283 108.571,72.221 108.731 M357.301 108.792 C 357.221 108.851,357.131 109.016,357.100 109.159 C 357.053 109.375,357.093 109.379,357.329 109.183 C 357.562 108.990,357.615 108.990,357.615 109.182 C 357.615 109.472,357.856 109.257,357.905 108.924 C 357.941 108.681,357.563 108.598,357.301 108.792 M181.451 109.898 C 181.591 109.984,181.662 110.166,181.610 110.303 C 181.546 110.468,181.660 110.550,181.950 110.550 C 182.189 110.550,182.385 110.450,182.385 110.327 C 182.385 110.203,182.262 110.151,182.108 110.210 C 181.922 110.281,181.863 110.231,181.929 110.060 C 181.994 109.891,181.885 109.793,181.612 109.772 C 181.314 109.750,181.268 109.785,181.451 109.898 M212.477 111.173 C 212.477 111.307,212.361 111.371,212.217 111.316 C 212.074 111.261,211.912 111.333,211.857 111.477 C 211.800 111.624,211.854 111.720,211.979 111.695 C 212.102 111.671,212.184 111.745,212.163 111.859 C 212.110 112.147,212.717 112.074,212.910 111.770 C 213.010 111.611,212.961 111.414,212.772 111.226 C 212.554 111.008,212.477 110.994,212.477 111.173 M315.656 111.655 C 315.437 111.905,315.354 112.109,315.473 112.107 C 315.809 112.103,316.053 111.865,316.081 111.514 C 316.112 111.116,316.135 111.108,315.656 111.655 M183.320 112.385 C 183.300 112.700,183.565 112.972,183.889 112.969 C 184.134 112.967,184.162 112.894,184.020 112.630 C 183.921 112.445,183.797 112.294,183.744 112.294 C 183.691 112.294,183.699 112.376,183.761 112.477 C 183.824 112.578,183.794 112.661,183.696 112.661 C 183.597 112.661,183.475 112.557,183.424 112.431 C 183.373 112.305,183.326 112.284,183.320 112.385 M57.908 112.796 C 57.585 113.118,57.816 113.352,58.255 113.148 C 58.507 113.031,58.713 112.891,58.714 112.837 C 58.716 112.698,58.040 112.663,57.908 112.796 M381.308 113.172 C 381.379 113.646,381.276 113.848,381.101 113.578 C 380.949 113.343,380.923 113.349,380.920 113.624 C 380.918 113.877,381.063 113.940,381.606 113.924 C 381.984 113.912,382.143 113.863,381.959 113.816 C 381.774 113.768,381.666 113.621,381.718 113.485 C 381.770 113.351,381.694 113.196,381.550 113.141 C 381.406 113.086,381.298 113.100,381.308 113.172 M89.119 114.337 C 88.793 114.693,88.803 114.697,89.851 114.642 C 90.691 114.599,90.927 114.520,90.975 114.266 C 91.066 113.785,89.571 113.842,89.119 114.337 M363.969 115.007 C 363.904 115.112,363.955 115.240,364.081 115.291 C 364.208 115.342,364.131 115.390,363.910 115.398 C 363.689 115.406,363.461 115.488,363.404 115.580 C 363.296 115.756,364.157 115.721,364.335 115.543 C 364.391 115.487,364.359 115.300,364.262 115.128 C 364.155 114.936,364.042 114.889,363.969 115.007 M62.470 115.367 C 62.483 115.544,62.563 115.702,62.648 115.718 C 62.733 115.735,62.873 115.859,62.958 115.994 C 63.076 116.179,63.114 116.158,63.116 115.904 C 63.119 115.611,62.727 115.046,62.521 115.046 C 62.480 115.046,62.457 115.190,62.470 115.367 M376.724 115.579 C 376.539 115.694,376.530 115.768,376.690 115.867 C 376.942 116.023,377.131 115.885,377.037 115.614 C 376.999 115.503,376.870 115.488,376.724 115.579 M346.789 116.055 C 346.663 116.206,346.591 116.337,346.629 116.344 C 347.221 116.466,347.304 116.451,347.222 116.236 C 347.171 116.104,347.280 115.956,347.464 115.909 C 347.746 115.836,347.737 115.819,347.408 115.801 C 347.193 115.789,346.915 115.904,346.789 116.055 M227.523 116.336 C 227.523 116.434,227.598 116.514,227.689 116.514 C 227.781 116.514,227.815 116.668,227.766 116.855 C 227.715 117.051,227.790 117.240,227.941 117.298 C 228.180 117.390,228.227 117.145,228.097 116.488 C 228.057 116.288,227.523 116.147,227.523 116.336 M367.903 116.284 C 367.896 116.411,367.766 116.514,367.615 116.514 C 367.463 116.514,367.339 116.633,367.339 116.778 C 367.339 116.950,367.477 117.017,367.731 116.968 C 368.232 116.871,368.239 116.860,368.063 116.422 C 367.982 116.220,367.910 116.158,367.903 116.284 M376.517 116.468 C 376.519 116.722,376.553 116.736,376.680 116.536 C 376.773 116.389,376.937 116.343,377.072 116.427 C 377.223 116.520,377.259 116.497,377.173 116.359 C 376.972 116.032,376.513 116.108,376.517 116.468 M50.320 116.558 C 50.346 116.685,50.278 116.773,50.168 116.753 C 50.059 116.734,49.969 116.822,49.969 116.949 C 49.969 117.078,50.187 117.181,50.459 117.181 C 51.023 117.181,51.103 116.844,50.611 116.537 C 50.350 116.374,50.284 116.378,50.320 116.558 M80.547 118.607 C 80.335 118.947,80.341 118.964,80.593 118.755 C 80.833 118.557,80.875 118.570,80.852 118.840 C 80.816 119.278,81.398 119.371,81.509 118.945 C 81.653 118.396,80.853 118.115,80.547 118.607 M174.884 118.965 C 174.870 119.188,174.768 119.269,174.587 119.200 C 174.400 119.128,174.312 119.210,174.312 119.455 C 174.312 119.873,174.824 119.947,174.975 119.552 C 175.031 119.407,175.038 119.138,174.991 118.956 C 174.910 118.643,174.904 118.643,174.884 118.965 M386.499 120.089 C 386.505 120.444,386.593 120.705,386.695 120.669 C 386.903 120.594,386.858 119.812,386.633 119.587 C 386.553 119.507,386.493 119.733,386.499 120.089 M240.155 123.374 C 240.189 124.798,240.292 125.991,240.384 126.024 C 240.476 126.058,240.559 126.223,240.569 126.391 C 240.636 127.522,240.883 125.384,240.893 123.578 C 240.905 121.508,240.882 121.359,240.499 121.081 L 240.092 120.786 240.155 123.374 M24.816 121.628 C 24.718 121.691,24.688 121.883,24.750 122.054 C 24.855 122.344,24.892 122.343,25.299 122.036 C 25.750 121.695,25.301 121.316,24.816 121.628 M65.413 125.504 C 65.413 126.917,65.475 128.083,65.550 128.096 C 66.507 128.257,66.606 128.023,66.606 125.584 C 66.606 123.752,66.558 123.399,66.284 123.191 C 65.486 122.585,65.413 122.778,65.413 125.504 M177.434 123.807 C 177.442 124.221,177.788 124.487,178.018 124.257 C 178.210 124.065,178.203 123.989,177.980 123.848 C 177.648 123.638,177.430 123.622,177.434 123.807 M100.704 125.597 C 100.647 126.688,100.673 126.790,101.009 126.789 C 101.338 126.789,101.376 126.667,101.376 125.596 C 101.376 123.836,100.794 123.837,100.704 125.597 M356.352 124.817 C 356.340 124.993,356.243 125.138,356.136 125.138 C 356.029 125.138,355.994 125.034,356.058 124.908 C 356.122 124.782,356.044 124.839,355.885 125.035 C 355.661 125.312,355.647 125.423,355.826 125.533 C 356.141 125.728,356.569 125.259,356.461 124.838 C 356.383 124.536,356.370 124.533,356.352 124.817 M357.615 125.579 C 357.615 125.742,357.487 125.804,357.268 125.747 C 356.823 125.630,356.661 125.895,356.992 126.200 C 357.133 126.330,357.248 126.382,357.248 126.315 C 357.248 126.248,357.358 126.285,357.493 126.397 C 357.690 126.561,357.744 126.474,357.763 125.961 C 357.776 125.609,357.748 125.321,357.701 125.321 C 357.653 125.321,357.615 125.437,357.615 125.579 M360.712 126.775 C 360.849 126.860,361.030 127.041,361.114 127.178 C 361.226 127.358,361.260 127.324,361.240 127.052 C 361.222 126.818,361.072 126.668,360.838 126.650 C 360.566 126.629,360.532 126.664,360.712 126.775 M360.275 127.278 C 359.953 127.537,359.949 127.558,360.244 127.456 C 360.429 127.392,360.656 127.339,360.749 127.339 C 360.842 127.339,360.917 127.257,360.917 127.156 C 360.917 126.896,360.701 126.937,360.275 127.278 M215.802 127.837 C 215.629 128.023,215.642 128.073,215.864 128.073 C 216.020 128.073,216.147 128.156,216.147 128.257 C 216.147 128.358,216.317 128.440,216.525 128.440 C 216.734 128.440,216.851 128.357,216.787 128.254 C 216.724 128.151,216.595 128.115,216.501 128.173 C 216.274 128.313,216.282 128.012,216.511 127.782 C 216.630 127.664,216.577 127.602,216.357 127.602 C 216.173 127.602,215.923 127.708,215.802 127.837 M371.024 128.028 C 371.013 128.196,370.492 128.257,369.075 128.257 C 367.144 128.257,366.437 128.458,366.841 128.892 C 367.098 129.169,371.008 129.035,371.012 128.750 C 371.014 128.603,371.066 128.613,371.171 128.778 C 371.285 128.958,371.351 128.898,371.417 128.555 C 371.466 128.296,371.443 128.124,371.365 128.172 C 371.288 128.220,371.182 128.155,371.131 128.029 C 371.057 127.845,371.035 127.845,371.024 128.028 M222.359 128.210 C 220.821 128.262,220.578 128.314,220.501 128.609 C 220.419 128.924,220.563 128.951,222.454 128.972 C 223.577 128.985,224.404 128.933,224.292 128.856 C 224.180 128.779,224.111 128.571,224.138 128.394 C 224.165 128.218,224.174 128.091,224.158 128.112 C 224.142 128.133,223.332 128.177,222.359 128.210 M113.496 129.525 C 113.367 129.734,113.565 130.275,113.770 130.275 C 114.069 130.275,114.122 129.945,113.841 129.837 C 113.683 129.777,113.606 129.644,113.669 129.543 C 113.732 129.441,113.742 129.358,113.691 129.358 C 113.641 129.358,113.553 129.433,113.496 129.525 M98.641 131.488 C 98.562 131.695,98.607 131.754,98.792 131.683 C 98.937 131.627,99.164 131.712,99.297 131.872 C 99.509 132.128,99.486 132.146,99.104 132.025 C 98.808 131.931,98.709 131.951,98.793 132.088 C 98.961 132.358,99.755 132.277,99.755 131.989 C 99.755 131.863,99.692 131.798,99.616 131.846 C 99.539 131.893,99.423 131.766,99.359 131.562 C 99.218 131.119,98.800 131.076,98.641 131.488 M81.373 133.041 C 81.214 133.768,81.284 133.808,81.795 133.278 C 82.026 133.039,82.124 132.844,82.014 132.844 C 81.904 132.844,81.864 132.761,81.927 132.661 C 81.989 132.560,81.918 132.477,81.769 132.477 C 81.615 132.477,81.443 132.721,81.373 133.041 M112.051 134.336 C 112.003 134.517,112.100 134.769,112.267 134.895 C 112.433 135.022,112.512 135.058,112.443 134.975 C 112.374 134.892,112.387 134.640,112.473 134.415 C 112.586 134.118,112.561 134.006,112.383 134.006 C 112.247 134.006,112.098 134.154,112.051 134.336 M92.489 135.928 C 92.483 136.060,92.395 136.118,92.296 136.056 C 92.191 135.992,92.161 136.066,92.224 136.231 C 92.340 136.533,93.149 136.820,93.342 136.628 C 93.404 136.565,93.331 136.514,93.178 136.514 C 93.025 136.514,92.811 136.328,92.701 136.101 C 92.591 135.874,92.496 135.796,92.489 135.928 M44.325 137.903 C 43.986 138.242,43.945 138.427,44.251 138.238 C 44.394 138.149,44.428 138.204,44.352 138.401 C 44.281 138.588,44.320 138.666,44.459 138.612 C 44.580 138.566,44.691 138.322,44.705 138.071 C 44.736 137.535,44.706 137.522,44.325 137.903 M46.128 139.297 C 46.036 139.446,46.103 139.474,46.346 139.389 C 46.658 139.279,46.664 139.291,46.401 139.497 C 46.172 139.676,46.154 139.776,46.324 139.935 C 46.576 140.170,47.067 139.568,46.876 139.259 C 46.726 139.015,46.288 139.038,46.128 139.297 M77.313 146.292 C 77.062 146.586,77.052 146.630,77.276 146.457 C 77.522 146.267,77.595 146.268,77.666 146.460 C 77.724 146.619,77.815 146.637,77.943 146.514 C 78.075 146.387,78.060 146.262,77.894 146.111 C 77.704 145.939,77.580 145.977,77.313 146.292 M11.190 146.657 C 11.188 146.995,11.154 147.017,10.992 146.789 C 10.838 146.571,10.812 146.568,10.868 146.775 C 10.974 147.169,11.664 147.157,11.664 146.760 C 11.664 146.579,11.558 146.390,11.429 146.341 C 11.280 146.284,11.192 146.402,11.190 146.657 M95.602 148.303 C 95.599 148.479,95.595 148.686,95.594 148.761 C 95.593 148.837,95.760 148.909,95.967 148.920 C 96.173 148.932,96.299 148.898,96.246 148.845 C 96.193 148.793,96.236 148.646,96.341 148.519 C 96.473 148.360,96.471 148.252,96.335 148.168 C 96.226 148.101,96.150 148.114,96.164 148.197 C 96.235 148.604,96.121 148.660,95.877 148.338 C 95.634 148.016,95.607 148.012,95.602 148.303 M9.808 149.128 C 9.547 149.732,9.583 149.849,10.023 149.826 C 10.500 149.800,10.548 149.718,10.404 149.169 C 10.287 148.721,9.994 148.701,9.808 149.128 M37.689 149.101 C 37.497 149.257,37.457 149.324,37.600 149.250 C 37.789 149.151,37.829 149.196,37.747 149.410 C 37.663 149.628,37.712 149.676,37.929 149.593 C 38.126 149.517,38.181 149.551,38.093 149.694 C 38.014 149.821,38.072 149.908,38.235 149.908 C 38.677 149.908,38.734 149.618,38.373 149.203 C 38.067 148.850,38.009 148.841,37.689 149.101 M87.474 149.037 C 87.285 149.529,87.505 149.580,89.695 149.552 C 91.197 149.532,92.045 149.595,92.218 149.738 C 92.563 150.024,92.566 149.582,92.222 149.128 C 91.912 148.721,87.627 148.638,87.474 149.037 M23.949 150.269 C 23.795 150.518,24.497 151.178,24.750 151.022 C 24.927 150.912,24.903 150.845,24.654 150.750 C 24.399 150.652,24.378 150.588,24.562 150.474 C 24.739 150.365,24.702 150.300,24.419 150.226 C 24.209 150.171,23.997 150.190,23.949 150.269 M8.630 152.785 C 8.626 152.903,8.479 153.035,8.303 153.076 C 8.060 153.134,8.103 153.186,8.476 153.291 C 8.748 153.367,9.007 153.566,9.051 153.733 C 9.112 153.961,9.137 153.942,9.153 153.659 C 9.165 153.451,9.053 153.121,8.905 152.925 C 8.757 152.729,8.633 152.666,8.630 152.785 M55.301 153.712 C 55.318 154.163,55.385 154.231,55.743 154.163 C 56.016 154.111,56.142 153.977,56.099 153.784 C 56.063 153.620,55.922 153.511,55.786 153.542 C 55.650 153.572,55.480 153.504,55.409 153.389 C 55.338 153.274,55.290 153.419,55.301 153.712 M20.808 156.431 C 20.969 156.592,21.101 156.807,21.101 156.909 C 21.101 157.244,21.525 156.962,21.582 156.588 C 21.626 156.299,21.522 156.215,21.077 156.181 C 20.563 156.142,20.541 156.163,20.808 156.431 M8.098 156.846 C 8.085 156.978,7.991 157.035,7.890 156.972 C 7.772 156.900,7.706 157.506,7.706 158.661 C 7.706 160.193,7.755 160.493,8.035 160.667 C 8.344 160.860,8.360 160.766,8.302 159.106 C 8.241 157.386,8.149 156.360,8.098 156.846 M43.009 157.572 C 42.802 157.710,42.729 158.351,42.920 158.346 C 43.278 158.336,43.553 157.987,43.211 157.976 C 42.925 157.968,42.966 157.909,43.394 157.713 C 43.824 157.516,43.865 157.458,43.578 157.449 C 43.376 157.442,43.120 157.497,43.009 157.572 M42.910 159.489 C 42.719 159.626,42.736 159.643,42.982 159.564 C 43.158 159.508,43.303 159.541,43.303 159.639 C 43.303 159.737,43.220 159.817,43.119 159.817 C 42.773 159.817,42.935 160.507,43.303 160.604 C 43.505 160.657,43.624 160.625,43.567 160.533 C 43.511 160.442,43.552 160.367,43.659 160.367 C 43.766 160.367,43.853 160.170,43.853 159.930 C 43.853 159.444,43.321 159.196,42.910 159.489 M20.942 160.963 C 21.037 161.140,21.292 161.284,21.509 161.284 C 21.898 161.284,21.899 161.279,21.549 160.996 C 21.353 160.837,21.296 160.759,21.422 160.823 C 21.548 160.887,21.651 160.860,21.651 160.764 C 21.651 160.668,21.453 160.601,21.211 160.616 C 20.851 160.637,20.802 160.701,20.942 160.963 M55.413 163.303 C 55.161 163.384,55.048 163.458,55.162 163.468 C 55.276 163.478,55.418 163.668,55.476 163.891 C 55.604 164.379,55.810 164.223,55.880 163.584 C 55.908 163.328,55.918 163.127,55.901 163.138 C 55.885 163.148,55.665 163.222,55.413 163.303 M25.222 167.168 C 25.155 167.276,24.985 167.320,24.844 167.266 C 24.487 167.129,24.523 167.286,24.954 167.749 C 25.156 167.965,25.328 168.065,25.336 167.970 C 25.345 167.876,25.372 167.612,25.397 167.385 C 25.448 166.929,25.404 166.874,25.222 167.168 M27.976 182.712 C 28.030 182.852,28.073 183.000,28.073 183.043 C 28.073 183.242,28.374 183.085,28.558 182.789 C 28.736 182.505,28.702 182.459,28.322 182.459 C 28.020 182.459,27.910 182.540,27.976 182.712 " stroke="none" fill="#fcfcfc" fill-rule="evenodd"></path><path id="path1" d="" stroke="none" fill="#100fcfc" fill-rule="evenodd"></path><path id="path2" d="" stroke="none" fill="#100fcfc" fill-rule="evenodd"></path><path id="path3" d="" stroke="none" fill="#100fcfc" fill-rule="evenodd"></path><path id="path4" d="" stroke="none" fill="#100fcfc" fill-rule="evenodd"></path></g></svg>